<svg fill="#1A1A1A" xmlns="http://www.w3.org/2000/svg"  viewBox="0 0 512 512" width="100px" height="100px"><path d="M 255.78125 73.503906 A 7.5 7.5 0 0 0 248.5 81 L 248.5 101 A 7.5 7.5 0 0 0 256 108.5 A 7.5 7.5 0 0 0 263.5 101 L 263.5 81 A 7.5 7.5 0 0 0 255.78125 73.503906 z M 149.82617 117.43359 A 7.5024029 7.5024029 0 0 0 144.63086 130.24023 L 158.76953 144.38086 A 7.5024029 7.5024029 0 0 0 169.38086 133.76953 L 155.24023 119.63086 A 7.5024029 7.5024029 0 0 0 149.82617 117.43359 z M 361.73633 117.43945 A 7.5024029 7.5024029 0 0 0 356.75977 119.63086 L 342.61914 133.76953 A 7.51 7.51 0 0 0 347.91992 146.58008 A 7.52 7.52 0 0 0 353.23047 144.38086 L 367.36914 130.24023 A 7.5024029 7.5024029 0 0 0 361.73633 117.43945 z M 253.73047 123.54883 A 107.51 107.51 0 0 0 148.90039 221.21094 A 2.5 2.5 0 0 1 146.41992 223.5 L 7.5 223.5 A 7.5 7.5 0 0 0 0 231 L 0 431 A 7.5 7.5 0 0 0 7.5 438.5 L 504.5 438.5 A 7.5 7.5 0 0 0 512 431 L 512 231 A 7.5 7.5 0 0 0 504.5 223.5 L 365.5 223.5 A 2.5 2.5 0 0 1 363.01953 221.21094 A 107.51 107.51 0 0 0 253.73047 123.54883 z M 257.98828 138.55664 A 92.51 92.51 0 0 1 348.16016 222.56055 A 17.41 17.41 0 0 0 365.58008 238.5 L 497 238.5 L 497 303.73047 C 479.31 304.84047 469.00031 309.8 459.82031 314.25 C 449.96031 319 440.65016 323.5 421.66016 323.5 C 402.67016 323.5 393.36 319 383.5 314.25 C 373.07 309.25 361.25008 303.5 338.83008 303.5 C 316.41008 303.5 304.58039 309.21 294.15039 314.25 C 284.29039 319 275 323.5 256 323.5 C 237 323.5 227.70961 319.01 217.84961 314.25 C 207.41961 309.25 195.59992 303.5 173.16992 303.5 C 150.73992 303.5 138.93 309.21 128.5 314.25 C 118.64 319 109.33984 323.5 90.339844 323.5 C 71.339844 323.5 61.999687 319 52.179688 314.25 C 42.999688 309.8 32.69 304.84047 15 303.73047 L 15 238.5 L 146.5 238.5 A 17.41 17.41 0 0 0 163.91992 222.56055 A 92.51 92.51 0 0 1 257.98828 138.55664 z M 258.39062 173.54883 A 57.5 57.5 0 0 0 198.5 231 A 57.56 57.56 0 0 0 256 288.5 A 57.5 57.5 0 0 0 258.39062 173.54883 z M 256 188.5 A 42.5 42.5 0 1 1 213.5 231 A 42.55 42.55 0 0 1 256 188.5 z M 173.16016 318.51953 C 192.15016 318.51953 201.46031 323.01953 211.32031 327.76953 C 221.75031 332.76953 233.57023 338.51953 255.99023 338.51953 C 278.41023 338.51953 290.23992 332.80953 300.66992 327.76953 C 310.52992 323.01953 319.84008 318.51953 338.83008 318.51953 C 357.82008 318.51953 367.13047 323.00953 376.98047 327.76953 C 387.41047 332.76953 399.23016 338.51953 421.66016 338.51953 C 444.09016 338.51953 455.90984 332.80953 466.33984 327.76953 C 474.79984 323.68953 482.88 319.76953 497 318.76953 L 497 423.5 L 15 423.5 L 15 318.76953 C 29.12 319.76953 37.200156 323.66953 45.660156 327.76953 C 56.090156 332.76953 67.910078 338.51953 90.330078 338.51953 C 112.75008 338.51953 124.57977 332.80953 135.00977 327.76953 C 144.86977 323.00953 154.17016 318.51953 173.16016 318.51953 z M 171.75 338.5 A 32.5 32.5 0 1 0 204.25 371 A 32.54 32.54 0 0 0 171.75 338.5 z M 340.25 338.5 A 32.5 32.5 0 1 0 372.75 371 A 32.54 32.54 0 0 0 340.25 338.5 z M 171.02148 353.51562 A 17.5 17.5 0 0 1 189.25 371 A 17.52 17.52 0 0 1 171.75 388.5 A 17.5 17.5 0 0 1 171.02148 353.51562 z M 339.52148 353.51562 A 17.5 17.5 0 0 1 357.75 371 A 17.52 17.52 0 0 1 340.25 388.5 A 17.5 17.5 0 0 1 339.52148 353.51562 z"/></svg>