<svg fill="#1A1A1A" xmlns="http://www.w3.org/2000/svg"  viewBox="0 0 64 64" width="100px" height="100px"><path d="M 13 6 C 9.1482075 6 6 9.1482075 6 13 L 6 19.294922 L 6 30.705078 L 6 47.294922 L 6 51 C 6 51.790587 6.1335205 52.553754 6.3769531 53.263672 C 6.498517 53.617755 6.6479176 53.961001 6.8222656 54.287109 C 6.8222656 54.287109 6.8242188 54.289062 6.8242188 54.289062 C 6.9597849 54.542369 7.122475 54.77812 7.2871094 55.011719 C 7.3338573 55.077997 7.369005 55.152234 7.4179688 55.216797 C 7.4193834 55.218664 7.4204585 55.220791 7.421875 55.222656 C 7.6433211 55.514053 7.8888485 55.78782 8.1523438 56.041016 C 8.571617 56.444078 9.0515463 56.777147 9.5605469 57.066406 C 10.017104 57.325735 10.494841 57.553221 11.007812 57.705078 C 11.011206 57.706083 11.014182 57.707985 11.017578 57.708984 L 11.544922 57.865234 L 11.580078 57.833984 C 12.046701 57.933264 12.519252 58 13 58 L 51 58 C 51.480748 58 51.953299 57.933264 52.419922 57.833984 L 52.455078 57.865234 L 52.982422 57.708984 C 52.985818 57.707985 52.988794 57.706083 52.992188 57.705078 C 53.505159 57.553221 53.982896 57.325735 54.439453 57.066406 C 54.948454 56.777147 55.428383 56.444078 55.847656 56.041016 C 56.111151 55.78782 56.356679 55.514053 56.578125 55.222656 C 56.579542 55.220791 56.580617 55.218664 56.582031 55.216797 C 56.803725 54.924473 57.00152 54.614519 57.175781 54.289062 C 57.175781 54.289062 57.177734 54.287109 57.177734 54.287109 C 57.177734 54.287109 57.177734 54.285156 57.177734 54.285156 C 57.352082 53.959048 57.503436 53.615802 57.625 53.261719 C 57.868433 52.551801 58 51.790587 58 51 L 58 47.294922 L 58 30.705078 L 58 19.294922 L 58 13 C 58 9.1482075 54.851793 6 51 6 L 13 6 z M 13 8 L 51 8 C 53.768207 8 56 10.231793 56 13 L 56 19 C 52.698937 19 50 21.698937 50 25 C 50 28.301063 52.698937 31 56 31 L 56 47 C 52.698937 47 50 49.698937 50 53 C 50 54.0925 50.296424 55.117343 50.808594 56 L 45.183594 56 C 45.697217 55.114138 46 54.090986 46 53 C 46 49.698937 43.301063 47 40 47 C 36.698937 47 34 49.698937 34 53 C 34 54.090986 34.302783 55.114138 34.816406 56 L 29.183594 56 C 29.697217 55.114138 30 54.090986 30 53 C 30 51.654556 29.551901 50.400934 28.798828 49.398438 C 27.704332 47.943105 25.955489 47 24 47 C 20.698937 47 18 49.698937 18 53 C 18 54.090986 18.302783 55.114138 18.816406 56 L 13.191406 56 C 13.703576 55.117343 14 54.0925 14 53 C 14 49.698937 11.301063 47 8 47 L 8 31 C 11.301063 31 14 28.301063 14 25 C 14 21.698937 11.301063 19 8 19 L 8 13 C 8 10.231793 10.231793 8 13 8 z M 12 12 C 11.45 12 11 12.45 11 13 L 11 15 C 11 15.55 11.45 16 12 16 C 12.55 16 13 15.55 13 15 L 13 13 C 13 12.45 12.55 12 12 12 z M 17 12 C 16.45 12 16 12.45 16 13 L 16 15 C 16 15.55 16.45 16 17 16 C 17.55 16 18 15.55 18 15 L 18 13 C 18 12.45 17.55 12 17 12 z M 22 12 C 21.45 12 21 12.45 21 13 L 21 15 C 21 15.55 21.45 16 22 16 C 22.55 16 23 15.55 23 15 L 23 13 C 23 12.45 22.55 12 22 12 z M 27 12 C 26.45 12 26 12.45 26 13 L 26 15 C 26 15.55 26.45 16 27 16 C 27.55 16 28 15.55 28 15 L 28 13 C 28 12.45 27.55 12 27 12 z M 32 12 C 31.45 12 31 12.45 31 13 L 31 15 C 31 15.55 31.45 16 32 16 C 32.55 16 33 15.55 33 15 L 33 13 C 33 12.45 32.55 12 32 12 z M 37 12 C 36.45 12 36 12.45 36 13 L 36 15 C 36 15.55 36.45 16 37 16 C 37.55 16 38 15.55 38 15 L 38 13 C 38 12.45 37.55 12 37 12 z M 42 12 C 41.45 12 41 12.45 41 13 L 41 15 C 41 15.55 41.45 16 42 16 C 42.55 16 43 15.55 43 15 L 43 13 C 43 12.45 42.55 12 42 12 z M 47 12 C 46.45 12 46 12.45 46 13 L 46 15 C 46 15.55 46.45 16 47 16 C 47.55 16 48 15.55 48 15 L 48 13 C 48 12.45 47.55 12 47 12 z M 52 12 C 51.45 12 51 12.45 51 13 L 51 15 C 51 15.55 51.45 16 52 16 C 52.55 16 53 15.55 53 15 L 53 13 C 53 12.45 52.55 12 52 12 z M 24 19 C 22.083334 19 20.518559 19.754756 19.501953 20.898438 C 18.485347 22.042119 18 23.527778 18 25 C 18 26.472222 18.485347 27.957882 19.501953 29.101562 C 20.518559 30.245244 22.083334 31 24 31 C 27.301865 31 30 28.301863 30 25 C 30 21.698137 27.301865 19 24 19 z M 40 19 C 38.083334 19 36.518559 19.754756 35.501953 20.898438 C 34.485347 22.042119 34 23.527778 34 25 C 34 26.472222 34.485347 27.957882 35.501953 29.101562 C 36.518559 30.245244 38.083334 31 40 31 C 43.301865 31 46 28.301863 46 25 C 46 21.698137 43.301865 19 40 19 z M 8 21 C 10.218937 21 12 22.781063 12 25 C 12 27.218937 10.218937 29 8 29 L 8 21 z M 24 21 C 26.220986 21 28 22.779015 28 25 C 28 27.220985 26.220986 29 24 29 C 22.583334 29 21.648107 28.504756 20.998047 27.773438 C 20.347987 27.042119 20 26.027778 20 25 C 20 23.972222 20.347987 22.957882 20.998047 22.226562 C 21.648107 21.495244 22.583334 21 24 21 z M 40 21 C 42.220986 21 44 22.779015 44 25 C 44 27.220985 42.220986 29 40 29 C 38.583334 29 37.648107 28.504756 36.998047 27.773438 C 36.347987 27.042119 36 26.027778 36 25 C 36 23.972222 36.347987 22.957882 36.998047 22.226562 C 37.648107 21.495244 38.583334 21 40 21 z M 56 21 L 56 29 C 53.781063 29 52 27.218937 52 25 C 52 22.781063 53.781063 21 56 21 z M 16 33 C 14.083334 33 12.518559 33.754756 11.501953 34.898438 C 10.485347 36.042119 10 37.527778 10 39 C 10 40.472222 10.485347 41.957881 11.501953 43.101562 C 12.518559 44.245244 14.083334 45 16 45 C 19.301865 45 22 42.301863 22 39 C 22 35.698137 19.301865 33 16 33 z M 32 33 C 30.083334 33 28.518559 33.754756 27.501953 34.898438 C 26.485347 36.042119 26 37.527778 26 39 C 26 40.472222 26.485347 41.957881 27.501953 43.101562 C 28.518559 44.245244 30.083334 45 32 45 C 35.301865 45 38 42.301863 38 39 C 38 35.698137 35.301865 33 32 33 z M 48 33 C 46.083334 33 44.518559 33.754756 43.501953 34.898438 C 42.485347 36.042119 42 37.527778 42 39 C 42 40.472222 42.485347 41.957881 43.501953 43.101562 C 44.518559 44.245244 46.083334 45 48 45 C 51.301865 45 54 42.301863 54 39 C 54 35.698137 51.301865 33 48 33 z M 16 35 C 18.220986 35 20 36.779015 20 39 C 20 41.220985 18.220986 43 16 43 C 14.583334 43 13.648107 42.504756 12.998047 41.773438 C 12.347987 41.042119 12 40.027778 12 39 C 12 37.972222 12.347987 36.957881 12.998047 36.226562 C 13.648107 35.495244 14.583334 35 16 35 z M 32 35 C 34.220986 35 36 36.779015 36 39 C 36 41.220985 34.220986 43 32 43 C 30.583334 43 29.648107 42.504756 28.998047 41.773438 C 28.347987 41.042119 28 40.027778 28 39 C 28 37.972222 28.347987 36.957881 28.998047 36.226562 C 29.648107 35.495244 30.583334 35 32 35 z M 48 35 C 50.220986 35 52 36.779015 52 39 C 52 41.220985 50.220986 43 48 43 C 46.583334 43 45.648107 42.504756 44.998047 41.773438 C 44.347987 41.042119 44 40.027778 44 39 C 44 37.972222 44.347987 36.957881 44.998047 36.226562 C 45.648107 35.495244 46.583334 35 48 35 z M 8 49 C 10.218937 49 12 50.781063 12 53 C 12 53.985483 11.585767 54.824214 11.003906 55.513672 C 9.7023759 54.936857 8.6745356 53.846606 8.234375 52.482422 C 8.2091584 52.401502 8.1930263 52.317021 8.171875 52.234375 C 8.1333056 52.088613 8.0913235 51.944145 8.0664062 51.792969 C 8.0250925 51.534569 8 51.270248 8 51 L 8 49 z M 24 49 C 25.314511 49 26.469668 49.628895 27.201172 50.601562 C 27.704099 51.271065 28 52.095444 28 53 C 28 54.211695 27.418112 55.268114 26.568359 56 L 21.431641 56 C 20.581888 55.268114 20 54.211695 20 53 C 20 50.781063 21.781063 49 24 49 z M 40 49 C 42.218937 49 44 50.781063 44 53 C 44 54.211695 43.418112 55.268114 42.568359 56 L 37.431641 56 C 36.581888 55.268114 36 54.211695 36 53 C 36 50.781063 37.781063 49 40 49 z M 56 49 L 56 51 C 56 51.270248 55.974907 51.534569 55.933594 51.792969 C 55.908676 51.944145 55.866694 52.088613 55.828125 52.234375 C 55.806974 52.317021 55.790842 52.401502 55.765625 52.482422 C 55.325464 53.846606 54.297624 54.936857 52.996094 55.513672 C 52.414233 54.824214 52 53.985483 52 53 C 52 50.781063 53.781063 49 56 49 z"/></svg>