<svg xmlns="http://www.w3.org/2000/svg"  viewBox="0 0 64 64" width="100px" height="100px"><path d="M 4 23 C 3.45 23 3 23.45 3 24 L 3 56 C 3 56.55 3.45 57 4 57 L 60 57 C 60.55 57 61 56.55 61 56 L 61 24 C 61 23.45 60.55 23 60 23 L 51.669922 23 C 51.009922 23 50.389531 23.329141 50.019531 23.869141 C 49.649531 24.409141 49.570781 25.089219 49.800781 25.699219 C 50.100781 26.469219 50.360547 27.340469 50.560547 28.230469 C 50.840547 29.420469 51 30.570625 51 31.390625 C 51 33.550625 49.79 35 48 35 C 46.21 35 45 33.550625 45 31.390625 C 45 30.570625 45.159453 29.420703 45.439453 28.220703 C 45.639453 27.340703 45.899219 26.470937 46.199219 25.710938 C 46.439219 25.100938 46.360234 24.409141 45.990234 23.869141 C 45.620234 23.319141 44.999844 23 44.339844 23 L 35.669922 23 C 35.009922 23 34.389531 23.329141 34.019531 23.869141 C 33.649531 24.409141 33.570781 25.089219 33.800781 25.699219 C 34.100781 26.469219 34.360547 27.340469 34.560547 28.230469 C 34.840547 29.420469 35 30.570625 35 31.390625 C 35 33.550625 33.79 35 32 35 C 30.21 35 29 33.550625 29 31.390625 C 29 30.570625 29.159453 29.420703 29.439453 28.220703 C 29.639453 27.340703 29.899219 26.470937 30.199219 25.710938 C 30.439219 25.100938 30.360234 24.409141 29.990234 23.869141 C 29.620234 23.319141 28.999844 23 28.339844 23 L 19.669922 23 C 19.009922 23 18.389531 23.329141 18.019531 23.869141 C 17.649531 24.409141 17.570781 25.089219 17.800781 25.699219 C 18.100781 26.469219 18.360547 27.340469 18.560547 28.230469 C 18.840547 29.420469 19 30.570625 19 31.390625 C 19 33.550625 17.79 35 16 35 C 14.21 35 13 33.550625 13 31.390625 C 13 30.570625 13.159453 29.420703 13.439453 28.220703 C 13.639453 27.340703 13.899219 26.470937 14.199219 25.710938 C 14.439219 25.100938 14.360234 24.409141 13.990234 23.869141 C 13.620234 23.319141 12.999844 23 12.339844 23 L 4 23 z M 5 24.980469 L 12.335938 24.980469 C 12.097458 25.607776 11.888255 26.284021 11.699219 26.980469 L 5 26.980469 L 5 24.980469 z M 19.669922 24.990234 L 28.335938 24.990234 C 28.097458 25.617542 27.888255 26.293786 27.699219 26.990234 L 20.300781 26.990234 C 20.110781 26.290234 19.909922 25.610234 19.669922 24.990234 z M 35.669922 25 L 44.335938 25 C 44.097458 25.627307 43.888255 26.303552 43.699219 27 L 36.300781 27 C 36.110781 26.3 35.909922 25.62 35.669922 25 z M 51.669922 25 L 59 25 L 59 27 L 52.300781 27 C 52.110781 26.3 51.909922 25.62 51.669922 25 z M 20.75 28.980469 L 27.240234 28.980469 C 27.080234 29.870469 26.990234 30.699141 26.990234 31.369141 C 26.990234 34.619141 29.090234 36.980469 31.990234 36.980469 C 34.890234 36.980469 36.990234 34.619141 36.990234 31.369141 C 36.990234 30.689141 36.900234 29.870469 36.740234 28.980469 L 43.230469 28.980469 C 43.070469 29.870469 42.980469 30.699141 42.980469 31.369141 C 42.980469 34.619141 45.080469 36.980469 47.980469 36.980469 C 50.880469 36.980469 52.980469 34.619141 52.980469 31.369141 C 52.980469 30.689141 52.890469 29.870469 52.730469 28.980469 L 58.980469 28.980469 L 58.980469 49.550781 C 58.220469 49.650781 57.71 49.870312 57.25 50.070312 C 56.7 50.300312 56.270547 50.490234 55.310547 50.490234 C 54.350547 50.490234 53.909141 50.300312 53.369141 50.070312 C 52.729141 49.800312 52.010625 49.490234 50.640625 49.490234 C 49.270625 49.490234 48.550156 49.800312 47.910156 50.070312 C 47.360156 50.300312 46.930703 50.490234 45.970703 50.490234 C 45.010703 50.490234 44.579297 50.300312 44.029297 50.070312 C 43.399297 49.800312 42.680781 49.490234 41.300781 49.490234 C 39.920781 49.490234 39.210312 49.800312 38.570312 50.070312 C 38.020313 50.300312 37.590859 50.490234 36.630859 50.490234 C 35.670859 50.490234 35.239453 50.300312 34.689453 50.070312 C 34.059453 49.800312 33.330938 49.490234 31.960938 49.490234 C 30.590937 49.490234 29.870469 49.800312 29.230469 50.070312 C 28.680469 50.300312 28.249063 50.490234 27.289062 50.490234 C 26.329062 50.490234 25.899609 50.300312 25.349609 50.070312 C 24.719609 49.800312 23.999141 49.490234 22.619141 49.490234 C 21.239141 49.490234 20.530625 49.800312 19.890625 50.070312 C 19.340625 50.300312 18.909219 50.490234 17.949219 50.490234 C 16.989219 50.490234 16.559766 50.300312 16.009766 50.070312 C 15.379766 49.800312 14.659297 49.490234 13.279297 49.490234 C 11.899297 49.490234 11.190781 49.800312 10.550781 50.070312 C 10.000781 50.300312 9.569375 50.490234 8.609375 50.490234 C 7.649375 50.490234 7.2199219 50.300312 6.6699219 50.070312 C 6.2099219 49.870312 5.7092188 49.660781 4.9492188 49.550781 L 4.9492188 29 L 11.199219 29 C 11.039219 29.89 10.949219 30.720625 10.949219 31.390625 C 10.949219 34.640625 13.049219 37 15.949219 37 L 16 36.980469 C 18.9 36.980469 21 34.619141 21 31.369141 C 21 30.689141 20.91 29.870469 20.75 28.980469 z M 24.015625 38.998047 C 23.760625 38.998047 23.505547 39.094062 23.310547 39.289062 C 22.920547 39.679063 22.920547 40.309219 23.310547 40.699219 L 24.599609 41.990234 L 15 41.990234 C 14.45 41.990234 14 42.440234 14 42.990234 C 14 43.540234 14.45 43.990234 15 43.990234 L 15 44 L 24.589844 44 L 23.300781 45.289062 C 22.910781 45.679063 22.910781 46.309219 23.300781 46.699219 C 23.500781 46.899219 23.749766 46.990234 24.009766 46.990234 C 24.269766 46.990234 24.520703 46.889219 24.720703 46.699219 L 27.720703 43.699219 C 28.110703 43.309219 28.110703 42.679062 27.720703 42.289062 L 24.720703 39.289062 C 24.525703 39.094062 24.270625 38.998047 24.015625 38.998047 z M 40.005859 39.017578 C 39.750859 39.017578 39.495781 39.115547 39.300781 39.310547 L 36.300781 42.310547 C 35.910781 42.700547 35.910781 43.330703 36.300781 43.720703 L 39.289062 46.710938 C 39.489063 46.910938 39.74 47 40 47 C 40.26 47 40.510938 46.900938 40.710938 46.710938 C 41.100938 46.320937 41.100938 45.690781 40.710938 45.300781 L 39.419922 44.009766 L 49.009766 44.009766 C 49.559766 44.009766 50.009766 43.559766 50.009766 43.009766 C 50.009766 42.459766 49.559766 42.009766 49.009766 42.009766 L 39.419922 42.009766 L 40.710938 40.720703 C 41.100938 40.330703 41.100938 39.700547 40.710938 39.310547 C 40.515937 39.115547 40.260859 39.017578 40.005859 39.017578 z M 13.339844 51.470703 C 14.299844 51.470703 14.729297 51.660625 15.279297 51.890625 C 15.909297 52.160625 16.629766 52.470703 18.009766 52.470703 C 19.389766 52.470703 20.100234 52.160625 20.740234 51.890625 C 21.290234 51.660625 21.719688 51.470703 22.679688 51.470703 C 23.639688 51.470703 24.069141 51.660625 24.619141 51.890625 C 25.249141 52.160625 25.979609 52.470703 27.349609 52.470703 C 28.719609 52.470703 29.440078 52.160625 30.080078 51.890625 C 30.630078 51.660625 31.059531 51.470703 32.019531 51.470703 C 32.979531 51.470703 33.410938 51.660625 33.960938 51.890625 C 34.590938 52.160625 35.309453 52.470703 36.689453 52.470703 C 38.069453 52.470703 38.779922 52.160625 39.419922 51.890625 C 39.969922 51.660625 40.399375 51.470703 41.359375 51.470703 C 42.319375 51.470703 42.750781 51.660625 43.300781 51.890625 C 43.930781 52.160625 44.649297 52.470703 46.029297 52.470703 C 47.409297 52.470703 48.119766 52.160625 48.759766 51.890625 C 49.309766 51.660625 49.739219 51.470703 50.699219 51.470703 C 51.659219 51.470703 52.100625 51.660625 52.640625 51.890625 C 53.280625 52.160625 53.999141 52.470703 55.369141 52.470703 C 56.739141 52.470703 57.459609 52.160625 58.099609 51.890625 C 58.409609 51.760625 58.689063 51.650313 59.039062 51.570312 L 59.039062 54.970703 L 5 54.970703 L 5 51.570312 C 5.35 51.650312 5.6294531 51.760625 5.9394531 51.890625 C 6.5694531 52.160625 7.2899219 52.470703 8.6699219 52.470703 C 10.049922 52.470703 10.760391 52.160625 11.400391 51.890625 C 11.950391 51.660625 12.379844 51.470703 13.339844 51.470703 z"/></svg>