<svg xmlns="http://www.w3.org/2000/svg"  viewBox="0 0 64 64" width="100px" height="100px"><path d="M 31.984375 6.9941406 C 31.831875 6.9941406 31.679062 7.0296094 31.539062 7.0996094 L 30.910156 7.4199219 C 27.540156 9.1099219 23.760234 10 19.990234 10 C 19.440234 10 18.990234 10.45 18.990234 11 L 18.990234 18 C 18.990234 25.69 23.579688 32.579062 30.679688 35.539062 L 30.689453 35.539062 L 31.609375 35.919922 C 31.729375 35.969922 31.860234 36 31.990234 36 C 32.120234 36 32.249141 35.969922 32.369141 35.919922 L 33.289062 35.539062 C 40.389063 32.579062 44.980469 25.7 44.980469 18 L 44.980469 11 C 44.980469 10.45 44.530469 10 43.980469 10 C 40.210469 10 36.430547 9.1099219 33.060547 7.4199219 L 32.429688 7.0996094 C 32.289687 7.0296094 32.136875 6.9941406 31.984375 6.9941406 z M 32 9.1191406 L 32.189453 9.2109375 C 35.539453 10.890937 39.26 11.840469 43 11.980469 L 43 18 C 43 24.88 38.889062 31.039453 32.539062 33.689453 L 32 33.910156 L 31.460938 33.689453 C 25.100938 31.039453 21 24.88 21 18 L 21 11.980469 C 24.74 11.840469 28.460547 10.890937 31.810547 9.2109375 L 32 9.1191406 z M 24.919922 16.720703 C 24.369922 16.720703 23.919922 17.170703 23.919922 17.720703 L 23.919922 21.220703 C 23.919922 23.150703 25.489922 24.720703 27.419922 24.720703 C 29.349922 24.720703 30.919922 23.150703 30.919922 21.220703 L 30.919922 17.720703 C 30.919922 17.170703 30.469922 16.720703 29.919922 16.720703 C 29.369922 16.720703 28.919922 17.170703 28.919922 17.720703 L 28.919922 21.220703 C 28.919922 22.050703 28.249922 22.720703 27.419922 22.720703 C 26.589922 22.720703 25.919922 22.050703 25.919922 21.220703 L 25.919922 17.720703 C 25.919922 17.170703 25.469922 16.720703 24.919922 16.720703 z M 33.273438 16.722656 C 33.143438 16.732344 33.013125 16.767578 32.890625 16.830078 C 32.400625 17.080078 32.210938 17.689687 32.460938 18.179688 L 35.570312 24.179688 C 35.740313 24.509687 36.080938 24.720703 36.460938 24.720703 C 36.840938 24.720703 37.179609 24.509688 37.349609 24.179688 L 40.460938 18.179688 C 40.710938 17.689688 40.519297 17.090078 40.029297 16.830078 C 39.539297 16.580078 38.939687 16.769766 38.679688 17.259766 L 36.460938 21.550781 L 34.240234 17.259766 C 34.052734 16.892266 33.663437 16.693594 33.273438 16.722656 z M 13.849609 26.849609 C 13.299609 26.849609 12.849609 27.299609 12.849609 27.849609 C 12.849609 28.399609 13.299609 28.849609 13.849609 28.849609 L 15.439453 28.849609 L 9.7792969 34.509766 L 6.640625 31.369141 C 6.250625 30.979141 5.6204687 30.979141 5.2304688 31.369141 C 4.8404687 31.759141 4.8404688 32.389297 5.2304688 32.779297 L 9.0800781 36.630859 L 9.0605469 36.630859 C 9.2605469 36.830859 9.5095312 36.919922 9.7695312 36.919922 C 10.029531 36.919922 10.280469 36.820859 10.480469 36.630859 L 16.849609 30.259766 L 16.849609 31.849609 C 16.849609 32.399609 17.299609 32.849609 17.849609 32.849609 C 18.399609 32.849609 18.849609 32.399609 18.849609 31.849609 L 18.849609 27.849609 C 18.849609 27.299609 18.399609 26.849609 17.849609 26.849609 L 13.849609 26.849609 z M 52.849609 26.849609 C 52.299609 26.849609 51.849609 27.299609 51.849609 27.849609 C 51.849609 28.399609 52.299609 28.849609 52.849609 28.849609 L 54.439453 28.849609 L 48.779297 34.509766 L 45.640625 31.369141 C 45.250625 30.979141 44.620469 30.979141 44.230469 31.369141 L 44.210938 31.369141 C 43.820937 31.759141 43.820938 32.389297 44.210938 32.779297 L 48.060547 36.630859 C 48.260547 36.830859 48.509531 36.919922 48.769531 36.919922 C 49.029531 36.919922 49.280469 36.820859 49.480469 36.630859 L 55.849609 30.259766 L 55.849609 31.849609 C 55.849609 32.399609 56.299609 32.849609 56.849609 32.849609 C 57.399609 32.849609 57.849609 32.399609 57.849609 31.849609 L 57.849609 27.849609 C 57.849609 27.299609 57.399609 26.849609 56.849609 26.849609 L 52.849609 26.849609 z M 4 39 C 3.45 39 3 39.45 3 40 L 3 56 C 3 56.55 3.45 57 4 57 L 60 57 C 60.55 57 61 56.55 61 56 L 61 40 C 61 39.45 60.55 39 60 39 L 4 39 z M 5 41 L 59 41 L 59 43 L 5 43 L 5 41 z M 5 45 L 59 45 L 59 55 L 5 55 L 5 45 z M 8.3613281 47.019531 C 7.9755469 47.078125 7.6482813 47.362266 7.5507812 47.759766 L 6.5390625 51.759766 C 6.3990625 52.299766 6.7297656 52.840703 7.2597656 52.970703 L 7.25 52.970703 C 7.33 52.990703 7.42 53 7.5 53 C 7.95 53 8.3507031 52.7 8.4707031 52.25 L 9.4804688 48.25 C 9.6204688 47.71 9.2897656 47.169062 8.7597656 47.039062 C 8.6247656 47.004063 8.4899219 47 8.3613281 47.019531 z M 12.361328 47.019531 C 11.975547 47.078125 11.648281 47.362266 11.550781 47.759766 L 10.539062 51.759766 C 10.399062 52.299766 10.729766 52.840703 11.259766 52.970703 L 11.25 52.970703 C 11.33 52.990703 11.42 53 11.5 53 C 11.95 53 12.350703 52.7 12.470703 52.25 L 13.480469 48.25 C 13.620469 47.71 13.289766 47.169062 12.759766 47.039062 C 12.624766 47.004063 12.489922 47 12.361328 47.019531 z M 16.361328 47.019531 C 15.975547 47.078125 15.648281 47.362266 15.550781 47.759766 L 14.539062 51.759766 C 14.399062 52.299766 14.729766 52.840703 15.259766 52.970703 L 15.25 52.970703 C 15.33 52.990703 15.42 53 15.5 53 C 15.95 53 16.350703 52.7 16.470703 52.25 L 17.480469 48.25 C 17.620469 47.71 17.289766 47.169062 16.759766 47.039062 C 16.624766 47.004063 16.489922 47 16.361328 47.019531 z M 20.361328 47.019531 C 19.975547 47.078125 19.648281 47.362266 19.550781 47.759766 L 18.539062 51.759766 C 18.399062 52.299766 18.729766 52.840703 19.259766 52.970703 L 19.25 52.970703 C 19.33 52.990703 19.42 53 19.5 53 C 19.95 53 20.350703 52.7 20.470703 52.25 L 21.480469 48.25 C 21.620469 47.71 21.289766 47.169062 20.759766 47.039062 C 20.624766 47.004063 20.489922 47 20.361328 47.019531 z M 24.361328 47.019531 C 23.975547 47.078125 23.648281 47.362266 23.550781 47.759766 L 22.539062 51.759766 C 22.399062 52.299766 22.729766 52.840703 23.259766 52.970703 L 23.25 52.970703 C 23.33 52.990703 23.42 53 23.5 53 C 23.95 53 24.350703 52.7 24.470703 52.25 L 25.480469 48.25 C 25.620469 47.71 25.289766 47.169062 24.759766 47.039062 C 24.624766 47.004063 24.489922 47 24.361328 47.019531 z M 28.361328 47.019531 C 27.975547 47.078125 27.648281 47.362266 27.550781 47.759766 L 26.539062 51.759766 C 26.399062 52.299766 26.729766 52.840703 27.259766 52.970703 L 27.25 52.970703 C 27.33 52.990703 27.42 53 27.5 53 C 27.95 53 28.350703 52.7 28.470703 52.25 L 29.480469 48.25 C 29.620469 47.71 29.289766 47.169062 28.759766 47.039062 C 28.624766 47.004063 28.489922 47 28.361328 47.019531 z M 32.361328 47.019531 C 31.975547 47.078125 31.648281 47.362266 31.550781 47.759766 L 30.539062 51.759766 C 30.399062 52.299766 30.729766 52.840703 31.259766 52.970703 L 31.25 52.970703 C 31.33 52.990703 31.42 53 31.5 53 C 31.95 53 32.350703 52.7 32.470703 52.25 L 33.480469 48.25 C 33.620469 47.71 33.289766 47.169062 32.759766 47.039062 C 32.624766 47.004063 32.489922 47 32.361328 47.019531 z M 36.361328 47.019531 C 35.975547 47.078125 35.648281 47.362266 35.550781 47.759766 L 34.539062 51.759766 C 34.399062 52.299766 34.729766 52.840703 35.259766 52.970703 L 35.25 52.970703 C 35.33 52.990703 35.42 53 35.5 53 C 35.95 53 36.350703 52.7 36.470703 52.25 L 37.480469 48.25 C 37.620469 47.71 37.289766 47.169062 36.759766 47.039062 C 36.624766 47.004063 36.489922 47 36.361328 47.019531 z M 40.361328 47.019531 C 39.975547 47.078125 39.648281 47.362266 39.550781 47.759766 L 38.539062 51.759766 C 38.399062 52.299766 38.729766 52.840703 39.259766 52.970703 L 39.25 52.970703 C 39.33 52.990703 39.42 53 39.5 53 C 39.95 53 40.350703 52.7 40.470703 52.25 L 41.480469 48.25 C 41.620469 47.71 41.289766 47.169062 40.759766 47.039062 C 40.624766 47.004063 40.489922 47 40.361328 47.019531 z M 44.361328 47.019531 C 43.975547 47.078125 43.648281 47.362266 43.550781 47.759766 L 42.539062 51.759766 C 42.399062 52.299766 42.729766 52.840703 43.259766 52.970703 L 43.25 52.970703 C 43.33 52.990703 43.42 53 43.5 53 C 43.95 53 44.350703 52.7 44.470703 52.25 L 45.480469 48.25 C 45.620469 47.71 45.289766 47.169062 44.759766 47.039062 C 44.624766 47.004063 44.489922 47 44.361328 47.019531 z M 48.361328 47.019531 C 47.975547 47.078125 47.648281 47.362266 47.550781 47.759766 L 46.539062 51.759766 C 46.399062 52.299766 46.729766 52.840703 47.259766 52.970703 L 47.25 52.970703 C 47.33 52.990703 47.42 53 47.5 53 C 47.95 53 48.350703 52.7 48.470703 52.25 L 49.480469 48.25 C 49.620469 47.71 49.289766 47.169062 48.759766 47.039062 C 48.624766 47.004063 48.489922 47 48.361328 47.019531 z M 52.361328 47.019531 C 51.975547 47.078125 51.648281 47.362266 51.550781 47.759766 L 50.539062 51.759766 C 50.399062 52.299766 50.729766 52.840703 51.259766 52.970703 L 51.25 52.970703 C 51.33 52.990703 51.42 53 51.5 53 C 51.95 53 52.350703 52.7 52.470703 52.25 L 53.480469 48.25 C 53.620469 47.71 53.289766 47.169062 52.759766 47.039062 C 52.624766 47.004063 52.489922 47 52.361328 47.019531 z M 56.361328 47.019531 C 55.975547 47.078125 55.648281 47.362266 55.550781 47.759766 L 54.539062 51.759766 C 54.399062 52.299766 54.729766 52.840703 55.259766 52.970703 L 55.25 52.970703 C 55.33 52.990703 55.42 53 55.5 53 C 55.95 53 56.350703 52.7 56.470703 52.25 L 57.480469 48.25 C 57.620469 47.71 57.289766 47.169062 56.759766 47.039062 C 56.624766 47.004063 56.489922 47 56.361328 47.019531 z"/></svg>