<svg xmlns="http://www.w3.org/2000/svg"  viewBox="0 0 512 512" width="100px" height="100px"><path d="M 260 20 C 127.57055 20 20 127.57055 20 260 C 20 270.3113 20.652462 280.4763 21.916016 290.45117 C 36.885277 408.61297 137.88039 500 260 500 C 392.42945 500 500 392.42945 500 260 C 500 255.84555 499.88924 251.72083 499.68164 247.62695 A 10.001 10.001 0 0 0 499.67188 247.38672 A 10.001 10.001 0 0 0 499.67188 247.38477 C 493.11041 120.76362 388.19977 20 260 20 z M 260 40 C 374.17435 40 467.84237 126.74492 478.89648 237.94727 C 465.24055 238.05016 450.94817 238.37317 436.83789 239.00781 C 433.59085 239.15386 430.3633 239.31573 427.14844 239.49805 C 426.22222 239.54985 425.30727 239.60904 424.38477 239.66406 C 421.56283 239.83445 418.7417 240.00362 415.96484 240.20508 C 415.96096 240.20536 415.95701 240.2048 415.95312 240.20508 C 415.94849 240.20541 415.94409 240.2067 415.93945 240.20703 C 412.67497 240.444 409.44413 240.70132 406.26367 240.98438 C 405.19422 241.07922 404.13471 241.17885 403.07617 241.2793 C 402.44562 241.33927 401.8099 241.39703 401.18359 241.45898 C 399.43772 241.63139 397.70542 241.80944 395.99414 241.99805 C 381.4453 243.60149 368.28751 245.75681 357.42773 248.87305 C 346.56796 251.98928 337.51748 255.34188 331.75195 263.75391 C 331.46256 264.17615 330.27753 265.27432 325.65234 265.75781 C 321.02716 266.2413 313.9234 265.75819 305.48242 264.35547 C 288.60046 261.55003 266.31814 255.33566 242.9375 249.45898 C 219.55686 243.58231 195.02984 238.01587 172.47266 236.73633 C 166.83336 236.41644 161.2646 236.35237 155.8457 236.65039 C 154.63899 236.71678 153.44288 236.80863 152.25195 236.91211 C 151.87552 236.94481 151.50169 236.98297 151.12695 237.01953 C 150.24386 237.1057 149.36535 237.20225 148.49219 237.31055 C 148.15537 237.35232 147.81769 237.39233 147.48242 237.4375 C 146.30953 237.59552 145.14492 237.76767 143.99219 237.96875 C 143.95504 237.97523 143.91798 237.98176 143.88086 237.98828 C 142.73994 238.18883 141.61152 238.41887 140.49219 238.66406 C 140.16561 238.7356 139.84222 238.81321 139.51758 238.88867 C 138.67864 239.08369 137.847 239.29174 137.02148 239.51367 C 136.61404 239.62321 136.20482 239.72943 135.80078 239.8457 C 135.58018 239.90919 135.36019 239.97354 135.14062 240.03906 C 134.33577 240.27924 133.53656 240.52677 132.74609 240.79492 C 131.94315 241.06731 131.15063 241.36182 130.36328 241.66406 C 130.17946 241.73463 129.99545 241.80473 129.8125 241.87695 C 129.02699 242.18707 128.24546 242.50629 127.47656 242.84766 C 126.71919 243.18391 125.9749 243.54261 125.23438 243.91016 C 125.04185 244.00571 124.84956 244.10151 124.6582 244.19922 C 123.91881 244.57678 123.18435 244.96462 122.46289 245.375 C 121.72697 245.79361 121.0036 246.23567 120.28711 246.68945 C 120.13671 246.78471 119.98742 246.88169 119.83789 246.97852 C 119.12558 247.43981 118.42045 247.91243 117.72852 248.41016 C 117.04681 248.90053 116.37797 249.41662 115.7168 249.94336 C 115.55689 250.07076 115.39696 250.19856 115.23828 250.32812 C 114.58148 250.8644 113.93216 251.41237 113.29688 251.98633 C 112.40555 252.79159 111.51796 253.57675 110.63281 254.34766 C 110.40887 254.54263 110.18643 254.72911 109.96289 254.92188 C 109.30889 255.48607 108.65453 256.04627 108.00391 256.5918 C 107.65584 256.88344 107.30998 257.16685 106.96289 257.45312 C 106.47933 257.85228 105.99536 258.24981 105.51367 258.63867 C 105.01366 259.04193 104.51556 259.436 104.01758 259.82812 C 103.70408 260.07528 103.39083 260.32362 103.07812 260.56641 C 102.44193 261.05972 101.80669 261.54434 101.17383 262.01953 C 101.03686 262.12254 100.90049 262.22596 100.76367 262.32812 C 100.00821 262.89134 99.254629 263.44294 98.503906 263.98047 C 77.563358 278.97426 58.465011 284.00862 41.095703 280.97461 C 40.441158 274.0631 40 267.08816 40 260 C 40 138.37945 138.37945 40 260 40 z M 164.03516 256.47852 C 166.39801 256.48546 168.83397 256.56098 171.33984 256.70312 C 191.38685 257.84028 215.02639 263.06539 238.0625 268.85547 C 258.2191 273.92178 277.87572 279.39892 295.01758 282.77344 C 297.46642 283.25551 299.8648 283.69508 302.20508 284.08398 C 311.56619 285.63961 319.99891 286.4586 327.73047 285.65039 C 335.46202 284.84218 343.45419 282.05505 348.24805 275.06055 C 348.62602 274.50908 353.90412 270.69205 362.94531 268.09766 C 371.98651 265.50327 384.30252 263.40701 398.18555 261.87695 C 399.7931 261.69978 401.42618 261.53213 403.07422 261.36914 C 404.60728 261.2184 406.15384 261.07354 407.7168 260.93555 C 430.41727 258.93139 456.10577 258.24419 479.94922 258.08008 C 479.95486 258.72233 480 259.35661 480 260 C 480 381.62055 381.62055 480 260 480 C 152.63728 480 63.602865 403.19038 44.138672 301.60742 C 67.447211 303.50154 91.962369 294.48317 115.95898 275.83789 C 116.19924 275.65156 116.43954 275.46563 116.67969 275.27734 C 117.23849 274.83848 117.79728 274.39461 118.35547 273.94531 C 118.81728 273.57412 119.27886 273.19871 119.74023 272.82031 C 120.19868 272.44388 120.65725 272.06703 121.11523 271.68359 C 121.65555 271.23164 122.19473 270.77041 122.73438 270.30859 C 123.12353 269.97536 123.51356 269.64688 123.90234 269.30859 C 124.83694 268.49575 125.77077 267.67045 126.70312 266.82812 C 127.21491 266.36575 127.75422 265.92438 128.30859 265.49414 C 128.45422 265.38112 128.60538 265.27293 128.75391 265.16211 C 129.18116 264.84334 129.62121 264.533 130.07227 264.23242 C 130.24139 264.11973 130.40764 264.00468 130.58008 263.89453 C 131.18244 263.50971 131.79719 263.13712 132.43945 262.7832 C 133.08206 262.4291 133.75182 262.09489 134.43359 261.77148 C 134.63574 261.6756 134.84329 261.58344 135.04883 261.49023 C 135.54872 261.26356 136.05834 261.04485 136.57812 260.83398 C 136.80776 260.74082 137.03605 260.64673 137.26953 260.55664 C 137.99293 260.27753 138.7285 260.00758 139.48828 259.75781 C 140.25735 259.50499 141.04991 259.27182 141.85547 259.04883 C 142.0964 258.98213 142.34179 258.91951 142.58594 258.85547 C 143.17512 258.70092 143.77509 258.55518 144.38281 258.41602 C 144.6438 258.35625 144.90361 258.29326 145.16797 258.23633 C 146.88738 257.86603 148.67645 257.55663 150.53516 257.30469 C 150.76236 257.27389 150.99343 257.24584 151.22266 257.2168 C 151.94027 257.12587 152.669 257.04259 153.40625 256.96875 C 153.68066 256.94127 153.95338 256.91379 154.23047 256.88867 C 155.1966 256.80107 156.17359 256.72317 157.17188 256.66406 C 159.38317 256.53313 161.67231 256.47157 164.03516 256.47852 z M 145 290 C 125.78847 290 110 305.78849 110 325 C 110 344.21151 125.78847 360 145 360 C 164.21153 360 180 344.21151 180 325 C 180 305.78849 164.21153 290 145 290 z M 265 300 C 245.78847 300 230 315.78849 230 335 C 230 354.21151 245.78847 370 265 370 C 284.21153 370 300 354.21151 300 335 C 300 315.78849 284.21153 300 265 300 z M 405 300 C 385.78847 300 370 315.78849 370 335 C 370 354.21151 385.78847 370 405 370 C 424.21153 370 440 354.21151 440 335 C 440 315.78849 424.21153 300 405 300 z M 145 310 C 153.40273 310 160 316.59727 160 325 C 160 333.40273 153.40273 340 145 340 C 136.59727 340 130 333.40273 130 325 C 130 316.59727 136.59727 310 145 310 z M 265 320 C 273.40273 320 280 326.59727 280 335 C 280 343.40273 273.40273 350 265 350 C 256.59727 350 250 343.40273 250 335 C 250 326.59727 256.59727 320 265 320 z M 405 320 C 413.40273 320 420 326.59727 420 335 C 420 343.40273 413.40273 350 405 350 C 396.59727 350 390 343.40273 390 335 C 390 326.59727 396.59727 320 405 320 z M 205 380 C 185.78847 380 170 395.78849 170 415 C 170 434.21151 185.78847 450 205 450 C 224.21153 450 240 434.21151 240 415 C 240 395.78849 224.21153 380 205 380 z M 315 380 C 295.78847 380 280 395.78849 280 415 C 280 434.21151 295.78847 450 315 450 C 334.21153 450 350 434.21151 350 415 C 350 395.78849 334.21153 380 315 380 z M 205 400 C 213.40273 400 220 406.59727 220 415 C 220 423.40273 213.40273 430 205 430 C 196.59727 430 190 423.40273 190 415 C 190 406.59727 196.59727 400 205 400 z M 315 400 C 323.40273 400 330 406.59727 330 415 C 330 423.40273 323.40273 430 315 430 C 306.59727 430 300 423.40273 300 415 C 300 406.59727 306.59727 400 315 400 z"/></svg>